<svg xmlns="http://www.w3.org/2000/svg" width="73" height="73" viewBox="0 0 73 73">
    <defs>
        <style>
            .cls-1{fill:none;stroke-linecap:round;stroke-dasharray:143.28 653.12}.cls-2,.cls-3{stroke:none}.cls-3{fill:#fff}
        </style>
    </defs>
    <g id="Circle" class="cls-1">
        <path d="M36.5 0A36.5 36.5 0 1 1 0 36.5 36.5 36.5 0 0 1 36.5 0z" class="cls-2"/>
        <path d="M36.5 0C56.658 0 73 16.342 73 36.5S56.658 73 36.5 73H36.235l-.007-.001h-.106l-.005-.001h-.014a3.588 3.588 0 0 1-.015 0h-.053l-.006-.001h-.037a2.146 2.146 0 0 0-.022 0h-.007l-.008-.001H35.897l-.008-.001h-.051l-.009-.001H35.786l-.007-.001h-.044l-.006-.001h-.044l-.009-.001H35.64l-.008-.001h-.029l-.007-.001h-.037l-.008-.001h-.029l-.007-.001H35.486l-.007-.001H35.45l-.008-.001H35.413l-.008-.001h-.022l-.007-.001h-.03l-.007-.001h-.022l-.007-.001h-.008a2.01 2.01 0 0 0-.021-.001H35.252l-.008-.001h-.022l-.007-.001H35.194l-.01-.001H35.17a1.661 1.661 0 0 1-.02-.002h-.038l-.006-.001h-.015a3.099 3.099 0 0 1-.014-.001h-.015l-.009-.001h-.014l-.006-.001h-.023l-.006-.001h-.01-.005l-.009-.001h-.015-.005l-.009-.001h-.015l-.005-.001h-.01-.005l-.01-.001h-.014l-.005-.001h-.01-.005l-.008-.001h-.016-.005l-.009-.001h-.005l-.01-.001h-.015-.004l-.01-.001h-.005l-.009-.001h-.015-.005l-.01-.001h-.005a151.65 151.65 0 0 1-.014-.001h-.01l-.005-.001h-.015l-.008-.001h-.006a3.62 3.62 0 0 1-.015-.001h-.009-.005l-.01-.001h-.005l-.009-.001h-.015l-.005-.001h-.009a1.285 1.285 0 0 0-.02-.002h-.01-.014l-.005-.001h-.01-.004l-.01-.001h-.005l-.01-.001h-.005a4.42 4.42 0 0 0-.014-.001h-.01l-.004-.001h-.01a.715.715 0 0 0-.015-.001h-.005l-.01-.001h-.014l-.005-.001h-.01l-.004-.001h-.015l-.01-.001h-.004l-.01-.001h-.005l-.01-.001h-.014l-.005-.001a4.652 4.652 0 0 0-.014-.001h-.015l-.01-.002h-.019l-.01-.001h-.004l-.01-.001h-.005l-.01-.001a.63.63 0 0 1-.004 0h-.01a.78.78 0 0 1-.016-.002H34.194l-.005-.001h-.014l-.01-.002h-.019l-.01-.001h-.005a4.992 4.992 0 0 0-.014-.002h-.015l-.01-.001h-.004l-.011-.001h-.004l-.01-.001h-.004l-.01-.001a.83.83 0 0 0-.005 0l-.01-.001a.658.658 0 0 1-.015-.001h-.004l-.01-.001h-.014l-.004-.001-.012-.001H33.961l-.003-.001h-.012l-.003-.001h-.01l-.004-.001-.012-.001h-.003l-.011-.001H33.9l-.012-.001h-.002l-.012-.001h-.003l-.012-.001h-.003l-.01-.001h-.004l-.011-.001h-.004l-.01-.001h-.004l-.012-.001H33.8l-.012-.001h-.003l-.011-.001a.473.473 0 0 0-.015-.001h-.003l-.011-.002h-.018l-.011-.002H33.7l-.004-.001h-.011l-.003-.001-.011-.001h-.004l-.01-.001h-.004l-.011-.001h-.004l-.01-.001h-.004l-.011-.001h-.003l-.012-.002H33.585l-.003-.001h-.012l-.002-.001-.012-.001h-.003l-.012-.001h-.003l-.011-.001h-.003l-.012-.002h-.014-.003l-.011-.002h-.003l-.012-.001h-.002l-.013-.001h-.002l-.012-.001h-.002l-.012-.002h-.015l-.002-.001-.012-.001h-.002l-.013-.001h-.001l-.013-.002h-.014-.003l-.012-.002h-.002l-.012-.001h-.002l-.013-.001h-.002l-.012-.002h-.002l-.013-.001h-.001l-.013-.001h-.002l-.013-.002h-.016l-.013-.002-.014-.001h-.001l-.013-.002h-.015l-.001-.001-.013-.001h-.001l-.013-.002h-.015l-.014-.002h-.002l-.013-.002h-.014-.001l-.013-.002h-.002l-.013-.001h-.001l-.013-.002h-.001l-.014-.001-.014-.002c-.001 0 0 0 0 0h-.014l-.001-.001c-.01 0-.02-.002-.028-.003-.002 0 0 0 0 0a35.427 35.427 0 0 1-.143-.014h-.001c-.01 0-.02-.002-.029-.003a36.27 36.27 0 0 1-13.178-3.94 6.594 6.594 0 0 1-.085-.044v-.001l-.01-.005c-.002 0-.002-.001-.003-.002l-.011-.005h-.001l-.011-.007h-.001a11.268 11.268 0 0 1-.036-.019l-.012-.006-.001-.001a6.693 6.693 0 0 1-.022-.012l-.003-.001-.01-.005-.002-.001-.01-.006-.002-.001-.01-.006h-.002l-.01-.005-.003-.002-.009-.005-.002-.001-.01-.005-.003-.002-.008-.005-.004-.001-.008-.005-.004-.002-.008-.004-.004-.002-.008-.005-.005-.002-.009-.005-.002-.001-.01-.005-.003-.002-.008-.004-.004-.002-.008-.005-.004-.002-.008-.004a.982.982 0 0 0-.004-.003c-.003 0-.005-.002-.008-.004l-.005-.002-.008-.004a.952.952 0 0 1-.003-.003l-.009-.004-.004-.002-.008-.005-.004-.001-.008-.005-.004-.002-.008-.004-.004-.003-.008-.004-.004-.002-.008-.004-.004-.003-.008-.004-.005-.003-.007-.004-.004-.002a16.571 16.571 0 0 1-.009-.004l-.004-.002-.008-.005-.003-.002a18.083 18.083 0 0 1-.01-.005l-.003-.002-.009-.004-.003-.002-.008-.005-.004-.002-.008-.004-.004-.002-.007-.004-.006-.003-.007-.004-.004-.003-.008-.004-.005-.002-.007-.004a1.17 1.17 0 0 0-.004-.003L19 68.54l-.005-.003-.007-.004-.005-.002a4.952 4.952 0 0 1-.02-.01l-.004-.003-.007-.004-.006-.003-.006-.004c-.002 0-.003-.002-.005-.003l-.007-.003-.005-.003-.007-.004-.005-.003-.007-.004-.006-.003-.006-.003a2.043 2.043 0 0 1-.018-.01l-.006-.004a1.67 1.67 0 0 0-.006-.003l-.006-.003-.006-.004a1.817 1.817 0 0 1-.006-.003l-.006-.003-.006-.003-.006-.004-.006-.003-.006-.003a2.404 2.404 0 0 0-.012-.007l-.006-.003a3.518 3.518 0 0 1-.012-.007l-.006-.004-.006-.003a2.692 2.692 0 0 0-.012-.006l-.007-.004-.005-.003-.006-.004-.006-.003-.006-.003-.006-.004-.006-.003a2.015 2.015 0 0 0-.006-.003l-.006-.004-.007-.003-.005-.003-.007-.004-.005-.003-.006-.003-.006-.004-.006-.003a4.486 4.486 0 0 0-.019-.01l-.005-.004a3.21 3.21 0 0 0-.007-.003l-.005-.003a2.134 2.134 0 0 1-.006-.004l-.006-.003-.007-.004-.005-.003-.007-.004-.005-.002-.007-.005-.005-.002-.007-.004-.004-.003a13.711 13.711 0 0 0-.008-.004l-.004-.003-.008-.004-.005-.003-.007-.004a1.781 1.781 0 0 1-.011-.006l-.006-.003a3.655 3.655 0 0 1-.006-.004l-.006-.003-.006-.004-.006-.003-.007-.004-.004-.003-.008-.004-.004-.002-.008-.005-.004-.002-.008-.004-.004-.003-.008-.004-.004-.003-.007-.004-.006-.003c-.002 0-.004-.002-.006-.004-.002 0-.004-.002-.005-.003l-.007-.003a1.835 1.835 0 0 1-.024-.014l-.005-.003a4.357 4.357 0 0 0-.008-.004l-.003-.002-.008-.005c-.002 0-.003-.002-.005-.003l-.007-.004c-.002 0-.003-.002-.005-.003l-.007-.003-.005-.004-.007-.003-.005-.003-.007-.004-.005-.003-.007-.004-.005-.003-.006-.004c-.002 0-.004-.002-.005-.003l-.008-.004-.004-.002-.007-.005c-.002 0-.004-.002-.005-.003l-.008-.004-.004-.002-.007-.005-.005-.002-.008-.005-.004-.002-.007-.005-.005-.002a14.206 14.206 0 0 1-.007-.005l-.004-.002-.008-.004-.004-.003a.828.828 0 0 0-.012-.007l-.008-.004-.004-.003-.008-.004-.004-.003-.007-.004c-.002 0-.004-.002-.005-.003a3.687 3.687 0 0 0-.012-.006l-.007-.005-.005-.002a13.887 13.887 0 0 0-.008-.005l-.004-.002a4.057 4.057 0 0 1-.007-.005l-.004-.002a15.218 15.218 0 0 0-.012-.007l-.008-.005-.004-.002-.008-.005-.004-.002-.007-.004-.005-.003a3.135 3.135 0 0 1-.008-.005l-.004-.002-.007-.005-.005-.002a5.872 5.872 0 0 1-.007-.005l-.004-.002-.008-.005-.004-.002-.009-.005-.003-.002-.008-.005-.004-.002-.008-.004-.004-.003-.007-.004-.005-.003-.007-.004-.005-.003-.007-.004-.005-.003-.007-.005a1.144 1.144 0 0 0-.016-.009l-.008-.005-.004-.002-.008-.005-.004-.002-.007-.004-.005-.003-.007-.004-.004-.003-.008-.005-.004-.002a13.87 13.87 0 0 0-.008-.005l-.004-.002-.008-.005-.004-.002-.008-.005-.003-.002a5.267 5.267 0 0 1-.02-.012l-.004-.002-.008-.005-.004-.002-.007-.005c-.002 0-.003-.002-.005-.003l-.008-.004-.003-.003-.009-.004-.003-.002a3.871 3.871 0 0 1-.009-.006s-.002 0-.003-.002l-.008-.005c-.001 0-.002 0-.003-.002l-.01-.005-.002-.002-.009-.005-.003-.002a5.525 5.525 0 0 0-.012-.007l-.008-.005a.805.805 0 0 0-.004-.002l-.008-.005a.48.48 0 0 0-.024-.014l-.003-.002-.009-.005a.994.994 0 0 0-.003-.002l-.009-.006a.426.426 0 0 1-.011-.007l-.003-.002-.009-.005-.003-.002-.008-.005-.004-.002-.008-.005-.004-.002-.008-.005-.003-.002-.009-.005-.003-.002-.008-.005a.838.838 0 0 0-.004-.003l-.008-.005-.004-.002-.008-.005-.003-.002-.008-.005-.004-.002-.008-.005-.004-.002-.008-.005-.004-.003a3.479 3.479 0 0 1-.008-.004l-.003-.003-.009-.005a.56.56 0 0 1-.003-.002l-.008-.005-.004-.002-.008-.005-.003-.002-.008-.005-.004-.002-.008-.005-.004-.003-.007-.004-.005-.003-.008-.005-.003-.002-.008-.005-.004-.002a4.636 4.636 0 0 0-.008-.005l-.004-.002-.008-.006-.003-.002-.009-.005-.003-.002-.009-.005-.003-.002-.008-.005-.003-.002a6.58 6.58 0 0 0-.008-.005l-.004-.003a5.37 5.37 0 0 1-.009-.005l-.002-.002a4.314 4.314 0 0 0-.01-.005l-.002-.002-.01-.006-.002-.001a19.074 19.074 0 0 1-.009-.006l-.002-.001-.01-.006a.452.452 0 0 0-.01-.007l-.004-.002a7.51 7.51 0 0 1-.009-.005c0-.001-.001-.002-.003-.002l-.008-.005a1.065 1.065 0 0 1-.012-.008l-.003-.002-.008-.005-.004-.002-.008-.005-.003-.003a4.763 4.763 0 0 0-.02-.012l-.004-.002-.008-.005-.003-.002-.008-.006-.004-.002-.008-.005-.004-.002-.008-.005a.762.762 0 0 0-.003-.002l-.008-.006c-.002 0-.003 0-.004-.002l-.008-.005-.003-.002a4.483 4.483 0 0 1-.01-.006l-.002-.001-.01-.006-.001-.001-.01-.006-.002-.002-.009-.005-.003-.002-.008-.005-.004-.003-.008-.005L17 67.36l-.008-.005-.004-.002a5.232 5.232 0 0 0-.008-.006l-.003-.002-.009-.005-.003-.002a6.184 6.184 0 0 0-.009-.006l-.002-.001-.01-.006a.554.554 0 0 1-.022-.015l-.003-.001-.01-.006-.002-.002-.009-.006-.002-.001a4.766 4.766 0 0 1-.01-.006l-.002-.002-.01-.006h-.001l-.01-.007-.002-.001-.009-.006-.003-.002-.008-.005-.003-.002-.008-.005-.004-.003-.007-.005a1.32 1.32 0 0 1-.005-.002l-.007-.005-.004-.003-.008-.005-.004-.002a3.175 3.175 0 0 0-.011-.007l-.009-.006a.965.965 0 0 0-.003-.002l-.008-.005-.003-.002-.009-.006a.543.543 0 0 0-.003-.002l-.007-.005-.004-.002a5.04 5.04 0 0 0-.02-.013l-.003-.002a8.29 8.29 0 0 0-.02-.013l-.003-.002-.009-.005a.495.495 0 0 0-.003-.002l-.008-.006-.003-.002-.008-.005-.004-.002-.007-.005a1.43 1.43 0 0 1-.005-.003l-.007-.005-.004-.002a4.3 4.3 0 0 1-.008-.005l-.004-.003-.008-.005-.003-.002-.009-.006-.002-.002-.01-.006-.002-.001-.008-.006-.004-.002-.007-.005a1.06 1.06 0 0 1-.004-.002l-.008-.005a.874.874 0 0 0-.004-.003l-.008-.005-.003-.002-.008-.006a.918.918 0 0 1-.003-.002l-.01-.006-.002-.001-.01-.007h-.001a6.08 6.08 0 0 0-.01-.008h-.002l-.009-.006-.002-.002-.009-.006-.003-.001a4.673 4.673 0 0 0-.011-.008l-.009-.006-.003-.002-.008-.005-.003-.002-.009-.006-.003-.002-.009-.006-.002-.001-.01-.006-.001-.002-.01-.006a.617.617 0 0 1-.002-.001c-.003-.002-.006-.005-.01-.006l-.001-.002-.01-.006a.59.59 0 0 1-.01-.008l-.003-.001-.01-.006-.002-.002-.01-.006-.001-.001-.011-.008a7.828 7.828 0 0 1-.022-.014l-.001-.001-.01-.006-.002-.002-.007-.005-.004-.002-.008-.005-.004-.003-.008-.005-.003-.003-.01-.006-.001-.001-.01-.007h-.002a7.313 7.313 0 0 1-.01-.007l-.001-.001-.01-.006-.002-.002a9.438 9.438 0 0 1-.011-.008l-.008-.005-.004-.002-.008-.006-.003-.002-.01-.007h-.001l-.011-.008-.012-.008-.01-.006-.002-.002-.008-.005-.003-.002-.007-.005-.004-.003-.006-.004-.006-.004-.005-.003-.006-.004-.01-.008h-.001a9.234 9.234 0 0 1-.011-.007l-.01-.007-.002-.001-.009-.007-.002-.001a13.487 13.487 0 0 0-.011-.007l-.01-.007-.002-.002a18.232 18.232 0 0 1-.01-.006l-.001-.001-.012-.008-.042-.029-.003-.002-.018-.012a37.412 37.412 0 0 1-.137-.094l-.003-.003-.004-.002-.02-.013v-.001l-.01-.007-.005-.003-.006-.005a47.07 47.07 0 0 1-.032-.022l-.002-.001-.009-.006-.003-.002-.006-.004-.005-.004-.006-.004-.005-.004-.009-.006-.002-.001-.01-.007-.001-.001-.01-.006-.002-.002a18.873 18.873 0 0 1-.009-.006l-.002-.002a3.219 3.219 0 0 1-.006-.004l-.005-.004c-.002 0-.003-.002-.005-.003l-.007-.005-.003-.002-.008-.006c-.002 0-.004-.002-.005-.004l-.006-.003-.006-.005-.005-.003-.008-.005-.003-.003a7.097 7.097 0 0 1-.01-.007h-.001a5 5 0 0 0-.008-.006l-.004-.003a4.232 4.232 0 0 1-.007-.005l-.004-.003-.008-.005-.003-.003a4.251 4.251 0 0 1-.007-.005l-.004-.003a3.844 3.844 0 0 1-.007-.004l-.005-.003-.008-.006-.003-.002-.01-.007v-.001l-.01-.006-.002-.002-.008-.006-.003-.002-.008-.006-.003-.002a4.19 4.19 0 0 1-.008-.005l-.004-.003-.006-.004-.005-.004a2.306 2.306 0 0 0-.006-.004l-.005-.004a3.268 3.268 0 0 0-.008-.005l-.003-.003-.009-.006-.002-.001-.01-.007-.001-.001-.01-.007-.002-.001-.008-.006-.003-.002a4.393 4.393 0 0 1-.008-.006l-.003-.002-.008-.006-.003-.002-.008-.006-.003-.002a4.349 4.349 0 0 1-.009-.006l-.002-.002a10.103 10.103 0 0 1-.01-.006l-.001-.002-.01-.007h-.001l-.01-.007-.002-.002-.007-.005-.004-.003-.007-.005-.004-.003-.007-.005-.004-.003-.008-.006-.003-.002-.009-.006-.002-.002-.01-.006-.001-.002a6.129 6.129 0 0 1-.01-.007h-.001l-.01-.008h-.002l-.009-.008h-.002l-.009-.007-.002-.002-.008-.006-.003-.002-.008-.006-.003-.002-.009-.006-.002-.002-.01-.007h-.001a6.832 6.832 0 0 1-.01-.007l-.001-.002-.009-.006-.002-.002-.008-.006-.004-.002a4.999 4.999 0 0 0-.007-.006l-.004-.002-.007-.006a2.78 2.78 0 0 1-.011-.008l-.004-.002-.008-.006-.003-.002-.01-.007v-.001l-.01-.008h-.002l-.01-.007v-.001a7.816 7.816 0 0 1-.01-.007l-.002-.001-.009-.007-.002-.002-.009-.006-.002-.002-.01-.007-.01-.008h-.002l-.01-.008-.01-.008h-.002l-.01-.008h-.001a5.685 5.685 0 0 1-.01-.008l-.001-.001-.01-.007-.001-.001-.009-.007-.002-.001a10.008 10.008 0 0 0-.009-.007l-.002-.002a17.725 17.725 0 0 1-.011-.008l-.01-.007h-.001a6.135 6.135 0 0 1-.01-.008h-.001l-.01-.008h-.001l-.01-.008-.001-.001-.01-.007-.001-.001-.01-.007-.001-.001-.01-.007-.001-.001a19.925 19.925 0 0 1-.01-.007l-.001-.002-.01-.007h-.001l-.01-.008h-.001l-.01-.008h-.001l-.01-.008-.001-.001-.01-.007-.001-.001-.009-.007-.002-.002-.01-.007h-.001l-.01-.008a9.585 9.585 0 0 1-.021-.016l-.002-.001a6.77 6.77 0 0 1-.01-.008l-.01-.008h-.002l-.01-.008-.01-.008-.002-.001-.01-.007v-.001l-.01-.008h-.001l-.01-.008h-.001l-.01-.008h-.001a5.904 5.904 0 0 1-.01-.008l-.001-.001-.01-.007-.001-.001-.01-.008h-.001a7.532 7.532 0 0 0-.01-.008h-.001l-.01-.008v-.001a9.403 9.403 0 0 1-.021-.016h-.002l-.01-.008-.011-.009-.01-.008h-.001l-.01-.008h-.001a5.763 5.763 0 0 1-.01-.008h-.001l-.01-.008-.001-.001-.01-.008h-.001l-.01-.008-.01-.008h-.002l-.01-.009a20.38 20.38 0 0 1-.01-.007l-.002-.002-.01-.007-.01-.008-.001-.001-.01-.008h-.001l-.01-.008h-.001l-.01-.009c-.001 0 0 0 0 0l-.011-.008c-.001 0 0 0 0 0a9.85 9.85 0 0 1-.011-.008l-.01-.008-.001-.001-.01-.008h-.001l-.01-.008h-.001l-.01-.009c-.001 0 0 0 0 0-.004-.002-.008-.005-.01-.008h-.002l-.01-.008-.01-.009h-.001l-.021-.016c-.001 0 0 0 0 0l-.011-.008v-.001l-.01-.008h-.002a35.652 35.652 0 0 1-.086-.066v-.001l-.01-.009a37.447 37.447 0 0 1-.065-.05l-.01-.008h-.001a36.702 36.702 0 0 1-3.272-2.893 2 2 0 1 1 2.823-2.834A32.396 32.396 0 0 0 36.5 69a32.397 32.397 0 0 0 22.981-9.519A32.397 32.397 0 0 0 69 36.5a32.397 32.397 0 0 0-9.519-22.981A32.396 32.396 0 0 0 36.5 4a2 2 0 1 1 0-4z" class="cls-3"/>
    </g>
</svg>
